<mxfile host="app.diagrams.net" modified="2024-03-11T05:56:13.963Z" agent="Mozilla/5.0 (Windows NT 10.0; Win64; x64) AppleWebKit/537.36 (KHTML, like Gecko) Chrome/122.0.0.0 Safari/537.36" version="23.1.5" etag="vFn1DkACNZJoz2KxJw9D" type="github">
  <diagram name="Page-1" id="j6fMppw9aqlY58uGT8Ji">
    <mxGraphModel>
      <root>
        <mxCell id="0" />
        <mxCell id="1" parent="0" />
      </root>
    </mxGraphModel>
  </diagram>
</mxfile>
